<?xml version="1.0" encoding="utf-8"?>
<!-- Generator: Adobe Illustrator 15.0.0, SVG Export Plug-In . SVG Version: 6.00 Build 0)  -->
<!DOCTYPE svg PUBLIC "-//W3C//DTD SVG 1.1//EN" "http://www.w3.org/Graphics/SVG/1.1/DTD/svg11.dtd">
<svg version="1.1" id="Layer_1" xmlns="http://www.w3.org/2000/svg" xmlns:xlink="http://www.w3.org/1999/xlink" x="0px" y="0px"
	 width="24px" height="24px" viewBox="244 244 24 24" enable-background="new 244 244 24 24" xml:space="preserve">
<path fill="#F22A59" d="M258.813,256.188c-0.259,0-0.469,0.21-0.469,0.469c0,0.259,0.21,0.469,0.469,0.469s0.469-0.21,0.469-0.469
	C259.282,256.398,259.072,256.188,258.813,256.188z"/>
<path fill="#F22A59" d="M248.79,261.334l-4.688,5.906c-0.112,0.141-0.133,0.333-0.055,0.495S244.29,268,244.47,268h23.063
	c0.18,0,0.344-0.103,0.422-0.265s0.057-0.354-0.055-0.495l-4.688-5.906c-0.089-0.112-0.225-0.178-0.367-0.178h-4.106l3.506-5.498
	c0.822-1.233,1.257-2.67,1.257-4.158c0-4.136-3.364-7.5-7.5-7.5s-7.5,3.364-7.5,7.5c0,1.487,0.435,2.925,1.257,4.158l3.505,5.498
	h-4.106C249.014,261.156,248.879,261.222,248.79,261.334z M247.04,265.047h2.834l-1.6,2.016h-2.834L247.04,265.047z
	 M253.861,262.094l1.285,2.016h-3.331l1.6-2.016H253.861z M258.141,262.094h0.446l1.6,2.016h-3.331L258.141,262.094z
	 M260.931,265.047l1.6,2.016h-13.059l1.6-2.016H260.931z M263.728,267.063l-1.6-2.016h2.834l1.6,2.016H263.728z M264.218,264.109
	h-2.834l-1.6-2.016h2.834L264.218,264.109z M250.54,255.142c-0.721-1.08-1.102-2.339-1.102-3.642c0-3.619,2.944-6.563,6.563-6.563
	c3.618,0,6.563,2.944,6.563,6.563c0,1.303-0.381,2.562-1.102,3.642c-0.002,0.002-0.004,0.005-0.006,0.008
	c-0.308,0.483-5.218,8.185-5.455,8.556c-0.597-0.936-4.848-7.604-5.456-8.556C250.544,255.147,250.542,255.145,250.54,255.142z
	 M252.218,262.094l-1.6,2.016h-2.834l1.6-2.016H252.218z"/>
<path fill="#F22A59" d="M256.001,256.188c2.573,0,4.688-2.083,4.688-4.687c0-2.585-2.103-4.688-4.688-4.688
	s-4.688,2.103-4.688,4.688C251.313,254.104,253.428,256.188,256.001,256.188z M256.001,247.75c2.067,0,3.75,1.682,3.75,3.75
	c0,2.087-1.696,3.75-3.75,3.75c-2.055,0-3.75-1.663-3.75-3.75C252.251,249.433,253.933,247.75,256.001,247.75z"/>
<path fill="#F22A59" d="M257.976,257.787c-0.222-0.134-0.51-0.063-0.644,0.16l-1.733,2.874c-0.133,0.222-0.062,0.51,0.16,0.644
	c0.223,0.134,0.51,0.062,0.644-0.16l1.732-2.874C258.269,258.209,258.197,257.921,257.976,257.787z"/>
</svg>
