<svg xmlns="http://www.w3.org/2000/svg" xmlns:xlink="http://www.w3.org/1999/xlink" width="350" zoomAndPan="magnify" viewBox="0 0 262.5 262.500001" height="350" preserveAspectRatio="xMidYMid meet" version="1.0"><defs><g/><clipPath id="id1"><path d="M 133 136 L 144 136 L 144 141.277344 L 133 141.277344 Z M 133 136 " clip-rule="nonzero"/></clipPath><clipPath id="id2"><path d="M 115 131 L 129 131 L 129 141.277344 L 115 141.277344 Z M 115 131 " clip-rule="nonzero"/></clipPath><clipPath id="id3"><path d="M 138 131 L 148 131 L 148 141.277344 L 138 141.277344 Z M 138 131 " clip-rule="nonzero"/></clipPath><clipPath id="id4"><path d="M 123 136 L 133 136 L 133 141.277344 L 123 141.277344 Z M 123 136 " clip-rule="nonzero"/></clipPath><clipPath id="id5"><path d="M 131 93.277344 L 136 93.277344 L 136 98 L 131 98 Z M 131 93.277344 " clip-rule="nonzero"/></clipPath><clipPath id="id6"><path d="M 151 114 L 153.992188 114 L 153.992188 117 L 151 117 Z M 151 114 " clip-rule="nonzero"/></clipPath><clipPath id="id7"><path d="M 108.242188 113 L 113 113 L 113 118 L 108.242188 118 Z M 108.242188 113 " clip-rule="nonzero"/></clipPath></defs><path fill="#51ade5" d="M 129.832031 125.417969 C 130.652344 125.835938 131.65625 125.417969 131.945312 124.535156 C 132.824219 121.84375 133.078125 117.9375 133.285156 112.230469 C 132.667969 112.269531 132.0625 112.289062 131.476562 112.289062 C 129.667969 112.289062 127.695312 112.132812 125.652344 111.648438 L 125.652344 116.613281 C 125.652344 116.941406 125.386719 117.210938 125.058594 117.210938 C 124.730469 117.210938 124.464844 116.941406 124.464844 116.613281 L 124.464844 111.332031 C 123.761719 111.121094 123.058594 110.871094 122.351562 110.570312 C 122.351562 110.570312 121.984375 113.773438 121.132812 118.515625 C 124.820312 121.933594 127.5 124.234375 129.832031 125.417969 " fill-opacity="1" fill-rule="nonzero"/><path fill="#83c734" d="M 139.714844 129.53125 C 140.988281 129.953125 142.539062 130.230469 144.421875 130.429688 C 143.667969 127.558594 143.039062 124.769531 142.527344 122.230469 C 140.832031 124.222656 139.601562 125.886719 138.835938 127.40625 C 138.421875 128.234375 138.835938 129.242188 139.714844 129.53125 " fill-opacity="1" fill-rule="nonzero"/><g clip-path="url(#id1)"><path fill="#fbc108" d="M 134.742188 137.335938 C 134.382812 138.4375 134.128906 139.738281 133.9375 141.28125 L 143.28125 141.28125 C 140.71875 138.992188 138.679688 137.382812 136.859375 136.457031 C 136.035156 136.039062 135.03125 136.457031 134.742188 137.335938 " fill-opacity="1" fill-rule="nonzero"/></g><path fill="#51ade5" d="M 133.402344 112.226562 C 133.609375 117.933594 133.863281 121.839844 134.742188 124.535156 C 135.03125 125.417969 136.035156 125.835938 136.859375 125.417969 C 138.457031 124.605469 140.222656 123.265625 142.363281 121.402344 C 141.121094 115.117188 140.601562 110.570312 140.601562 110.570312 C 139.472656 111.050781 138.347656 111.402344 137.246094 111.660156 L 137.246094 116.613281 C 137.246094 116.941406 136.976562 117.210938 136.648438 117.210938 C 136.320312 117.210938 136.054688 116.941406 136.054688 116.613281 L 136.054688 111.90625 C 135.152344 112.066406 134.261719 112.167969 133.402344 112.226562 " fill-opacity="1" fill-rule="nonzero"/><g clip-path="url(#id2)"><path fill="#ef239c" d="M 127.851562 134.46875 C 128.265625 133.640625 127.851562 132.632812 126.976562 132.34375 C 124.90625 131.660156 122.117188 131.351562 118.339844 131.152344 C 117.429688 134.535156 116.347656 138.003906 115.070312 141.28125 L 122.730469 141.28125 C 125.179688 138.535156 126.886719 136.382812 127.851562 134.46875 " fill-opacity="1" fill-rule="nonzero"/></g><g clip-path="url(#id3)"><path fill="#f48817" d="M 139.714844 132.34375 C 138.835938 132.632812 138.421875 133.640625 138.835938 134.46875 C 139.800781 136.382812 141.507812 138.535156 143.960938 141.28125 L 147.882812 141.28125 C 146.636719 138.089844 145.578125 134.714844 144.683594 131.417969 C 142.679688 131.617188 141.046875 131.902344 139.714844 132.34375 " fill-opacity="1" fill-rule="nonzero"/></g><path fill="#98198e" d="M 118.457031 130.714844 C 122.171875 130.515625 124.925781 130.207031 126.976562 129.53125 C 127.851562 129.242188 128.265625 128.234375 127.851562 127.40625 C 126.683594 125.085938 124.429688 122.425781 121.085938 118.777344 C 120.46875 122.191406 119.605469 126.371094 118.457031 130.714844 " fill-opacity="1" fill-rule="nonzero"/><g clip-path="url(#id4)"><path fill="#ce0f70" d="M 131.945312 137.335938 C 131.65625 136.457031 130.652344 136.039062 129.832031 136.457031 C 128.007812 137.382812 125.972656 138.992188 123.40625 141.28125 L 132.75 141.28125 C 132.558594 139.738281 132.304688 138.4375 131.945312 137.335938 " fill-opacity="1" fill-rule="nonzero"/></g><path fill="#51ade5" d="M 126.273438 116.613281 L 126.273438 108.835938 C 126.273438 105.957031 128.570312 103.566406 131.4375 103.542969 C 134.328125 103.523438 136.679688 105.871094 136.679688 108.773438 L 136.679688 116.613281 C 136.679688 116.941406 136.945312 117.210938 137.273438 117.210938 C 137.601562 117.210938 137.867188 116.941406 137.867188 116.613281 L 137.867188 108.855469 C 137.867188 105.316406 135.058594 102.382812 131.539062 102.347656 C 127.988281 102.316406 125.085938 105.210938 125.085938 108.773438 L 125.085938 116.613281 C 125.085938 116.941406 125.351562 117.210938 125.679688 117.210938 C 126.007812 117.210938 126.273438 116.941406 126.273438 116.613281 " fill-opacity="1" fill-rule="nonzero"/><path fill="#f48817" d="M 148.257812 116.191406 C 148.257812 117.234375 147.417969 118.074219 146.386719 118.074219 C 145.351562 118.074219 144.511719 117.234375 144.511719 116.191406 C 144.511719 115.152344 145.351562 114.3125 146.386719 114.3125 C 147.417969 114.3125 148.257812 115.152344 148.257812 116.191406 " fill-opacity="1" fill-rule="nonzero"/><g clip-path="url(#id5)"><path fill="#98198e" d="M 135.273438 95.164062 C 135.273438 96.203125 134.4375 97.046875 133.402344 97.046875 C 132.367188 97.046875 131.527344 96.203125 131.527344 95.164062 C 131.527344 94.125 132.367188 93.28125 133.402344 93.28125 C 134.4375 93.28125 135.273438 94.125 135.273438 95.164062 " fill-opacity="1" fill-rule="nonzero"/></g><path fill="#51ade5" d="M 116.5 125.582031 C 116.5 126.621094 115.660156 127.460938 114.628906 127.460938 C 113.59375 127.460938 112.753906 126.621094 112.753906 125.582031 C 112.753906 124.539062 113.59375 123.699219 114.628906 123.699219 C 115.660156 123.699219 116.5 124.539062 116.5 125.582031 " fill-opacity="1" fill-rule="nonzero"/><path fill="#fbc108" d="M 119.054688 108.070312 C 119.054688 109.113281 118.21875 109.953125 117.183594 109.953125 C 116.148438 109.953125 115.308594 109.113281 115.308594 108.070312 C 115.308594 107.03125 116.148438 106.191406 117.183594 106.191406 C 118.21875 106.191406 119.054688 107.03125 119.054688 108.070312 " fill-opacity="1" fill-rule="nonzero"/><path fill="#f48817" d="M 141.546875 104.910156 C 141.546875 105.617188 140.976562 106.191406 140.273438 106.191406 C 139.570312 106.191406 139 105.617188 139 104.910156 C 139 104.203125 139.570312 103.628906 140.273438 103.628906 C 140.976562 103.628906 141.546875 104.203125 141.546875 104.910156 " fill-opacity="1" fill-rule="nonzero"/><g clip-path="url(#id6)"><path fill="#51ade5" d="M 153.976562 115.589844 C 153.976562 116.296875 153.40625 116.871094 152.703125 116.871094 C 152 116.871094 151.429688 116.296875 151.429688 115.589844 C 151.429688 114.886719 152 114.3125 152.703125 114.3125 C 153.40625 114.3125 153.976562 114.886719 153.976562 115.589844 " fill-opacity="1" fill-rule="nonzero"/></g><path fill="#51ade5" d="M 125.78125 99.34375 C 125.78125 100.050781 125.210938 100.625 124.507812 100.625 C 123.804688 100.625 123.234375 100.050781 123.234375 99.34375 C 123.234375 98.636719 123.804688 98.0625 124.507812 98.0625 C 125.210938 98.0625 125.78125 98.636719 125.78125 99.34375 " fill-opacity="1" fill-rule="nonzero"/><path fill="#ce0f70" d="M 120.328125 115.589844 C 120.328125 116.296875 119.757812 116.871094 119.054688 116.871094 C 118.351562 116.871094 117.78125 116.296875 117.78125 115.589844 C 117.78125 114.886719 118.351562 114.3125 119.054688 114.3125 C 119.757812 114.3125 120.328125 114.886719 120.328125 115.589844 " fill-opacity="1" fill-rule="nonzero"/><path fill="#83c734" d="M 150.132812 107.171875 C 150.132812 108.421875 149.125 109.433594 147.882812 109.433594 C 146.636719 109.433594 145.628906 108.421875 145.628906 107.171875 C 145.628906 105.921875 146.636719 104.910156 147.882812 104.910156 C 149.125 104.910156 150.132812 105.921875 150.132812 107.171875 " fill-opacity="1" fill-rule="nonzero"/><g clip-path="url(#id7)"><path fill="#83c734" d="M 112.753906 115.589844 C 112.753906 116.839844 111.746094 117.851562 110.503906 117.851562 C 109.261719 117.851562 108.253906 116.839844 108.253906 115.589844 C 108.253906 114.34375 109.261719 113.332031 110.503906 113.332031 C 111.746094 113.332031 112.753906 114.34375 112.753906 115.589844 " fill-opacity="1" fill-rule="nonzero"/></g><path fill="#51ade5" d="M 150.507812 124.746094 C 150.507812 125.996094 149.5 127.007812 148.257812 127.007812 C 147.015625 127.007812 146.007812 125.996094 146.007812 124.746094 C 146.007812 123.5 147.015625 122.484375 148.257812 122.484375 C 149.5 122.484375 150.507812 123.5 150.507812 124.746094 " fill-opacity="1" fill-rule="nonzero"/><g fill="#021a3b" fill-opacity="1"><g transform="translate(85.563142, 158.934962)"><g><path d="M 5.386719 -4.542969 L 3.769531 -4.542969 C 0.996094 -4.542969 0.558594 -6.917969 1.40625 -7.429688 C 2.675781 -8.199219 2.910156 -5.363281 4.753906 -5.363281 C 6.605469 -5.363281 6.992188 -7.078125 6.804688 -8.449219 L 6.53125 -8.449219 C 6.53125 -7.902344 6.394531 -7.550781 5.785156 -7.550781 C 5.164062 -7.550781 4.304688 -8.511719 3.074219 -8.511719 C -0.433594 -8.511719 0.0625 -5.039062 2.761719 -4.328125 C 1.292969 -4.070312 0.222656 -3.433594 0.222656 -2.226562 C 0.222656 -0.871094 1.640625 0.0859375 3.980469 0.0859375 C 5.660156 0.0859375 6.570312 -0.472656 7.316406 -1.304688 L 7.179688 -1.457031 C 6.097656 -0.3125 4.070312 0.136719 3.085938 -1.804688 C 2.328125 -3.285156 2.738281 -4.21875 4.03125 -4.21875 L 5.175781 -4.21875 Z M 5.386719 -4.542969 "/></g></g></g><g fill="#021a3b" fill-opacity="1"><g transform="translate(92.642288, 158.934962)"><g><path d="M 3.90625 0 C 3.410156 -0.546875 2.9375 -1.382812 2.664062 -2.277344 L 4.515625 -2.277344 C 4.925781 -1.058594 5.921875 0.0859375 7.292969 0.0859375 C 7.925781 0.0859375 8.722656 -0.148438 9.21875 -0.847656 L 9.007812 -1.070312 C 8.609375 -0.648438 7.976562 -0.695312 7.664062 -1.40625 C 7.167969 -2.5625 6.90625 -4.042969 6.371094 -5.636719 C 5.910156 -7.03125 4.628906 -8.5 2.113281 -8.5 L 2.113281 -8.175781 C 2.675781 -8.175781 2.898438 -7.640625 3.222656 -6.59375 C 2.898438 -6.195312 2.550781 -5.75 2.277344 -5.324219 C 1.441406 -4.054688 0.222656 -1.792969 0.222656 0 Z M 4.417969 -2.574219 L 2.589844 -2.574219 C 2.3125 -3.632812 2.328125 -4.765625 2.886719 -5.613281 C 3.035156 -5.835938 3.183594 -6.035156 3.335938 -6.246094 C 3.695312 -5.078125 4.042969 -3.71875 4.417969 -2.574219 Z M 4.417969 -2.574219 "/></g></g></g><g fill="#021a3b" fill-opacity="1"><g transform="translate(101.01534, 158.934962)"><g><path d="M 0.222656 -5.960938 C 0.222656 -4.316406 1.46875 -3.707031 3.171875 -3.210938 C 5.277344 -2.589844 6.457031 -1.59375 5.871094 -1.070312 C 4.828125 -0.148438 4.179688 -3.074219 2.328125 -3.074219 C 0.484375 -3.074219 0.0976562 -1.355469 0.285156 0.0117188 L 0.558594 0.0117188 C 0.558594 -0.535156 0.683594 -0.882812 1.304688 -0.882812 C 1.929688 -0.882812 2.738281 0.0859375 3.96875 0.0859375 C 5.574219 0.0859375 6.792969 -1.144531 6.792969 -2.539062 C 6.792969 -4.269531 4.617188 -5.015625 3.570312 -5.3125 C 1.46875 -5.898438 0.496094 -6.855469 1.09375 -7.355469 C 2.191406 -8.261719 2.613281 -5.363281 4.46875 -5.363281 C 6.320312 -5.363281 6.695312 -7.078125 6.519531 -8.449219 L 6.234375 -8.449219 C 6.234375 -7.902344 6.109375 -7.550781 5.488281 -7.550781 C 4.878906 -7.550781 4.230469 -8.511719 3 -8.511719 C 1.417969 -8.511719 0.222656 -7.328125 0.222656 -5.960938 Z M 0.222656 -5.960938 "/></g></g></g><g fill="#021a3b" fill-opacity="1"><g transform="translate(108.032282, 158.934962)"><g><path d="M 3.695312 -8.4375 C 5.101562 -7.578125 5.226562 -6.394531 4.441406 -5.039062 C 4.355469 -4.890625 4.292969 -4.753906 4.242188 -4.605469 C 4.167969 -5.015625 4.03125 -5.476562 3.796875 -6.234375 C 3.183594 -8.136719 1.71875 -8.523438 1.082031 -8.523438 C 0.433594 -8.523438 -0.359375 -8.285156 -0.859375 -7.589844 L -0.632812 -7.367188 C -0.25 -7.789062 0.398438 -7.75 0.695312 -7.042969 C 0.910156 -6.53125 0.96875 -6.132812 1.183594 -5.523438 C 1.640625 -4.230469 4.007812 -5.289062 4.007812 -3.582031 C 4.007812 -2.128906 1.605469 -2.699219 1.605469 -1.121094 L 1.605469 0 L 4.316406 0 L 4.316406 -3.546875 C 4.316406 -3.808594 4.367188 -4.316406 4.851562 -5.078125 C 5.660156 -6.34375 7.464844 -7.15625 7.464844 -8.4375 Z M 3.695312 -8.4375 "/></g></g></g><g fill="#021a3b" fill-opacity="1"><g transform="translate(115.72106, 158.934962)"><g/></g></g><g fill="#021a3b" fill-opacity="1"><g transform="translate(119.005585, 158.934962)"><g><path d="M 0.222656 -5.960938 C 0.222656 -4.316406 1.46875 -3.707031 3.171875 -3.210938 C 5.277344 -2.589844 6.457031 -1.59375 5.871094 -1.070312 C 4.828125 -0.148438 4.179688 -3.074219 2.328125 -3.074219 C 0.484375 -3.074219 0.0976562 -1.355469 0.285156 0.0117188 L 0.558594 0.0117188 C 0.558594 -0.535156 0.683594 -0.882812 1.304688 -0.882812 C 1.929688 -0.882812 2.738281 0.0859375 3.96875 0.0859375 C 5.574219 0.0859375 6.792969 -1.144531 6.792969 -2.539062 C 6.792969 -4.269531 4.617188 -5.015625 3.570312 -5.3125 C 1.46875 -5.898438 0.496094 -6.855469 1.09375 -7.355469 C 2.191406 -8.261719 2.613281 -5.363281 4.46875 -5.363281 C 6.320312 -5.363281 6.695312 -7.078125 6.519531 -8.449219 L 6.234375 -8.449219 C 6.234375 -7.902344 6.109375 -7.550781 5.488281 -7.550781 C 4.878906 -7.550781 4.230469 -8.511719 3 -8.511719 C 1.417969 -8.511719 0.222656 -7.328125 0.222656 -5.960938 Z M 0.222656 -5.960938 "/></g></g></g><g fill="#021a3b" fill-opacity="1"><g transform="translate(126.022527, 158.934962)"><g><path d="M 3.011719 0 L 3.011719 -4.417969 C 3.246094 -4.46875 3.484375 -4.40625 3.769531 -4.269531 C 4.054688 -4.117188 4.328125 -3.992188 4.605469 -3.957031 L 4.605469 0 L 7.328125 0 L 7.328125 -8.4375 L 4.605469 -8.4375 L 4.605469 -4.242188 C 4.40625 -4.28125 4.179688 -4.390625 3.90625 -4.527344 C 3.671875 -4.652344 3.359375 -4.765625 3.011719 -4.714844 L 3.011719 -8.4375 L 0.285156 -8.4375 L 0.285156 0 Z M 3.011719 0 "/></g></g></g><g fill="#021a3b" fill-opacity="1"><g transform="translate(133.636656, 158.934962)"><g><path d="M 4.441406 -8.511719 C 2.113281 -8.511719 0.222656 -6.59375 0.222656 -4.21875 C 0.222656 -1.839844 2.113281 0.0859375 4.441406 0.0859375 C 6.78125 0.0859375 8.660156 -1.839844 8.660156 -4.21875 C 8.660156 -6.59375 6.78125 -8.511719 4.441406 -8.511719 Z M 6.542969 -0.832031 C 5.835938 -0.398438 4.304688 -1.542969 3.148438 -3.410156 C 1.992188 -5.277344 1.628906 -7.140625 2.339844 -7.589844 C 3.0625 -8.039062 4.578125 -6.878906 5.734375 -5.015625 C 6.90625 -3.160156 7.253906 -1.28125 6.542969 -0.832031 Z M 6.542969 -0.832031 "/></g></g></g><g fill="#021a3b" fill-opacity="1"><g transform="translate(142.519805, 158.934962)"><g><path d="M 3.210938 -3.097656 C 5.773438 -3.097656 7.265625 -4.46875 7.265625 -6.035156 C 7.265625 -7.492188 5.535156 -8.523438 3.210938 -8.523438 C 1.976562 -8.523438 0.285156 -7.964844 0.285156 -5.824219 L 0.285156 0 L 3.011719 0 L 3.011719 -4.703125 C 3.011719 -6.308594 1.492188 -6.234375 1.195312 -6.96875 C 1.070312 -7.277344 1.15625 -7.789062 1.992188 -7.789062 C 2.648438 -7.789062 3.546875 -7.242188 4.054688 -6.46875 C 5.089844 -4.890625 4.40625 -3.347656 3.210938 -3.347656 Z M 3.210938 -3.097656 "/></g></g></g><g fill="#021a3b" fill-opacity="1"><g transform="translate(150.071725, 158.934962)"><g><path d="M 3.210938 -3.097656 C 5.773438 -3.097656 7.265625 -4.46875 7.265625 -6.035156 C 7.265625 -7.492188 5.535156 -8.523438 3.210938 -8.523438 C 1.976562 -8.523438 0.285156 -7.964844 0.285156 -5.824219 L 0.285156 0 L 3.011719 0 L 3.011719 -4.703125 C 3.011719 -6.308594 1.492188 -6.234375 1.195312 -6.96875 C 1.070312 -7.277344 1.15625 -7.789062 1.992188 -7.789062 C 2.648438 -7.789062 3.546875 -7.242188 4.054688 -6.46875 C 5.089844 -4.890625 4.40625 -3.347656 3.210938 -3.347656 Z M 3.210938 -3.097656 "/></g></g></g><g fill="#021a3b" fill-opacity="1"><g transform="translate(157.623646, 158.934962)"><g><path d="M 3.011719 0 L 3.011719 -8.4375 L 0.285156 -8.4375 L 0.285156 0 Z M 3.011719 0 "/></g></g></g><g fill="#021a3b" fill-opacity="1"><g transform="translate(160.920619, 158.934962)"><g><path d="M 3.957031 -6.65625 C 2.949219 -8.410156 1.703125 -8.4375 0.609375 -8.4375 L 0.296875 -8.4375 L 0.296875 0 L 3.011719 0 L 3.011719 -0.238281 C 3.011719 -3.210938 0.96875 -1.828125 0.648438 -6.980469 L 2.972656 -2.886719 C 4.144531 -0.832031 6.644531 -1.964844 6.644531 0 L 6.957031 0 L 6.957031 -8.4375 L 4.242188 -8.4375 L 4.242188 -8.199219 C 4.242188 -5.289062 6.171875 -6.484375 6.570312 -1.828125 C 6.40625 -2.214844 6.183594 -2.636719 5.898438 -3.171875 C 5.375 -4.144531 4.605469 -5.5 3.957031 -6.65625 Z M 3.957031 -6.65625 "/></g></g></g><g fill="#021a3b" fill-opacity="1"><g transform="translate(168.173948, 158.934962)"><g><path d="M 8.460938 -5.214844 L 8.148438 -5.214844 C 8.148438 -5.214844 7.949219 -3.871094 6.148438 -3.871094 L 4.628906 -3.871094 L 4.628906 -3.570312 L 5.734375 -3.570312 L 5.734375 -3.359375 C 5.734375 -2.003906 7.328125 -1.15625 6.65625 -0.757812 C 5.773438 -0.238281 4.253906 -1.617188 3.148438 -3.410156 C 1.992188 -5.277344 1.628906 -7.140625 2.339844 -7.589844 C 3.597656 -8.386719 4.230469 -5.363281 6.085938 -5.363281 C 7.9375 -5.363281 8.3125 -7.078125 8.136719 -8.449219 L 7.851562 -8.449219 C 7.851562 -7.902344 7.726562 -7.550781 7.105469 -7.550781 C 6.496094 -7.550781 5.671875 -8.511719 4.441406 -8.511719 C 2.113281 -8.511719 0.222656 -6.59375 0.222656 -4.21875 C 0.222656 -1.839844 2.113281 0.0859375 4.441406 0.0859375 C 6.097656 0.0859375 7.429688 -0.710938 8.460938 -1.890625 Z M 8.460938 -5.214844 "/></g></g></g><g fill="#98198e" fill-opacity="1"><g transform="translate(89.947961, 167.723837)"><g><path d="M 0.296875 0 L 0.296875 -3.390625 L 2.578125 -3.390625 L 2.578125 -2.8125 L 1.015625 -2.8125 L 1.015625 -2 L 2.46875 -2 L 2.46875 -1.40625 L 1.015625 -1.40625 L 1.015625 -0.59375 L 2.59375 -0.59375 L 2.59375 0 Z M 0.296875 0 "/></g></g></g><g fill="#98198e" fill-opacity="1"><g transform="translate(94.141284, 167.723837)"><g><path d="M 0.90625 -3.390625 L 1.734375 -0.8125 L 1.765625 -0.8125 L 2.578125 -3.390625 L 3.375 -3.390625 L 2.203125 0 L 1.28125 0 L 0.109375 -3.390625 Z M 0.90625 -3.390625 "/></g></g></g><g fill="#98198e" fill-opacity="1"><g transform="translate(98.965993, 167.723837)"><g><path d="M 3.421875 -1.703125 C 3.421875 -1.328125 3.347656 -1.007812 3.203125 -0.75 C 3.066406 -0.488281 2.878906 -0.289062 2.640625 -0.15625 C 2.398438 -0.0195312 2.128906 0.046875 1.828125 0.046875 C 1.523438 0.046875 1.253906 -0.0195312 1.015625 -0.15625 C 0.773438 -0.289062 0.582031 -0.488281 0.4375 -0.75 C 0.300781 -1.007812 0.234375 -1.328125 0.234375 -1.703125 C 0.234375 -2.066406 0.300781 -2.378906 0.4375 -2.640625 C 0.582031 -2.898438 0.773438 -3.097656 1.015625 -3.234375 C 1.253906 -3.367188 1.523438 -3.4375 1.828125 -3.4375 C 2.128906 -3.4375 2.398438 -3.367188 2.640625 -3.234375 C 2.878906 -3.097656 3.066406 -2.898438 3.203125 -2.640625 C 3.347656 -2.378906 3.421875 -2.066406 3.421875 -1.703125 Z M 2.6875 -1.703125 C 2.6875 -2.054688 2.609375 -2.328125 2.453125 -2.515625 C 2.296875 -2.710938 2.085938 -2.8125 1.828125 -2.8125 C 1.566406 -2.8125 1.359375 -2.710938 1.203125 -2.515625 C 1.046875 -2.328125 0.96875 -2.054688 0.96875 -1.703125 C 0.96875 -1.335938 1.046875 -1.0625 1.203125 -0.875 C 1.359375 -0.6875 1.566406 -0.59375 1.828125 -0.59375 C 2.085938 -0.59375 2.296875 -0.6875 2.453125 -0.875 C 2.609375 -1.0625 2.6875 -1.335938 2.6875 -1.703125 Z M 2.6875 -1.703125 "/></g></g></g><g fill="#98198e" fill-opacity="1"><g transform="translate(103.949788, 167.723837)"><g><path d="M 0.296875 0 L 0.296875 -3.390625 L 1.015625 -3.390625 L 1.015625 -0.59375 L 2.46875 -0.59375 L 2.46875 0 Z M 0.296875 0 "/></g></g></g><g fill="#98198e" fill-opacity="1"><g transform="translate(107.932649, 167.723837)"><g><path d="M 2.40625 -3.390625 L 3.109375 -3.390625 L 3.109375 -1.15625 C 3.109375 -0.894531 3.046875 -0.675781 2.921875 -0.5 C 2.804688 -0.320312 2.640625 -0.1875 2.421875 -0.09375 C 2.210938 0 1.972656 0.046875 1.703125 0.046875 C 1.429688 0.046875 1.1875 0 0.96875 -0.09375 C 0.757812 -0.1875 0.59375 -0.320312 0.46875 -0.5 C 0.351562 -0.675781 0.296875 -0.894531 0.296875 -1.15625 L 0.296875 -3.390625 L 1.015625 -3.390625 L 1.015625 -1.171875 C 1.015625 -0.992188 1.078125 -0.851562 1.203125 -0.75 C 1.335938 -0.644531 1.503906 -0.59375 1.703125 -0.59375 C 1.898438 -0.59375 2.066406 -0.644531 2.203125 -0.75 C 2.335938 -0.851562 2.40625 -0.992188 2.40625 -1.171875 Z M 2.40625 -3.390625 "/></g></g></g><g fill="#98198e" fill-opacity="1"><g transform="translate(112.671184, 167.723837)"><g><path d="M 0.171875 -2.8125 L 0.171875 -3.390625 L 2.953125 -3.390625 L 2.953125 -2.8125 L 1.921875 -2.8125 L 1.921875 0 L 1.203125 0 L 1.203125 -2.8125 Z M 0.171875 -2.8125 "/></g></g></g><g fill="#98198e" fill-opacity="1"><g transform="translate(117.124683, 167.723837)"><g><path d="M 1.015625 -3.390625 L 1.015625 0 L 0.296875 0 L 0.296875 -3.390625 Z M 1.015625 -3.390625 "/></g></g></g><g fill="#98198e" fill-opacity="1"><g transform="translate(119.768546, 167.723837)"><g><path d="M 3.421875 -1.703125 C 3.421875 -1.328125 3.347656 -1.007812 3.203125 -0.75 C 3.066406 -0.488281 2.878906 -0.289062 2.640625 -0.15625 C 2.398438 -0.0195312 2.128906 0.046875 1.828125 0.046875 C 1.523438 0.046875 1.253906 -0.0195312 1.015625 -0.15625 C 0.773438 -0.289062 0.582031 -0.488281 0.4375 -0.75 C 0.300781 -1.007812 0.234375 -1.328125 0.234375 -1.703125 C 0.234375 -2.066406 0.300781 -2.378906 0.4375 -2.640625 C 0.582031 -2.898438 0.773438 -3.097656 1.015625 -3.234375 C 1.253906 -3.367188 1.523438 -3.4375 1.828125 -3.4375 C 2.128906 -3.4375 2.398438 -3.367188 2.640625 -3.234375 C 2.878906 -3.097656 3.066406 -2.898438 3.203125 -2.640625 C 3.347656 -2.378906 3.421875 -2.066406 3.421875 -1.703125 Z M 2.6875 -1.703125 C 2.6875 -2.054688 2.609375 -2.328125 2.453125 -2.515625 C 2.296875 -2.710938 2.085938 -2.8125 1.828125 -2.8125 C 1.566406 -2.8125 1.359375 -2.710938 1.203125 -2.515625 C 1.046875 -2.328125 0.96875 -2.054688 0.96875 -1.703125 C 0.96875 -1.335938 1.046875 -1.0625 1.203125 -0.875 C 1.359375 -0.6875 1.566406 -0.59375 1.828125 -0.59375 C 2.085938 -0.59375 2.296875 -0.6875 2.453125 -0.875 C 2.609375 -1.0625 2.6875 -1.335938 2.6875 -1.703125 Z M 2.6875 -1.703125 "/></g></g></g><g fill="#98198e" fill-opacity="1"><g transform="translate(124.752342, 167.723837)"><g><path d="M 3.140625 -3.390625 L 3.140625 0 L 2.515625 0 L 1.03125 -2.140625 L 1.015625 -2.140625 L 1.015625 0 L 0.296875 0 L 0.296875 -3.390625 L 0.921875 -3.390625 L 2.390625 -1.265625 L 2.421875 -1.265625 L 2.421875 -3.390625 Z M 3.140625 -3.390625 "/></g></g></g><g fill="#98198e" fill-opacity="1"><g transform="translate(129.517392, 167.723837)"><g/></g></g><g fill="#98198e" fill-opacity="1"><g transform="translate(131.934221, 167.723837)"><g><path d="M 3.421875 -1.703125 C 3.421875 -1.328125 3.347656 -1.007812 3.203125 -0.75 C 3.066406 -0.488281 2.878906 -0.289062 2.640625 -0.15625 C 2.398438 -0.0195312 2.128906 0.046875 1.828125 0.046875 C 1.523438 0.046875 1.253906 -0.0195312 1.015625 -0.15625 C 0.773438 -0.289062 0.582031 -0.488281 0.4375 -0.75 C 0.300781 -1.007812 0.234375 -1.328125 0.234375 -1.703125 C 0.234375 -2.066406 0.300781 -2.378906 0.4375 -2.640625 C 0.582031 -2.898438 0.773438 -3.097656 1.015625 -3.234375 C 1.253906 -3.367188 1.523438 -3.4375 1.828125 -3.4375 C 2.128906 -3.4375 2.398438 -3.367188 2.640625 -3.234375 C 2.878906 -3.097656 3.066406 -2.898438 3.203125 -2.640625 C 3.347656 -2.378906 3.421875 -2.066406 3.421875 -1.703125 Z M 2.6875 -1.703125 C 2.6875 -2.054688 2.609375 -2.328125 2.453125 -2.515625 C 2.296875 -2.710938 2.085938 -2.8125 1.828125 -2.8125 C 1.566406 -2.8125 1.359375 -2.710938 1.203125 -2.515625 C 1.046875 -2.328125 0.96875 -2.054688 0.96875 -1.703125 C 0.96875 -1.335938 1.046875 -1.0625 1.203125 -0.875 C 1.359375 -0.6875 1.566406 -0.59375 1.828125 -0.59375 C 2.085938 -0.59375 2.296875 -0.6875 2.453125 -0.875 C 2.609375 -1.0625 2.6875 -1.335938 2.6875 -1.703125 Z M 2.6875 -1.703125 "/></g></g></g><g fill="#98198e" fill-opacity="1"><g transform="translate(136.918015, 167.723837)"><g><path d="M 0.296875 0 L 0.296875 -3.390625 L 2.546875 -3.390625 L 2.546875 -2.8125 L 1.015625 -2.8125 L 1.015625 -2 L 2.390625 -2 L 2.390625 -1.40625 L 1.015625 -1.40625 L 1.015625 0 Z M 0.296875 0 "/></g></g></g><g fill="#98198e" fill-opacity="1"><g transform="translate(140.982077, 167.723837)"><g/></g></g><g fill="#98198e" fill-opacity="1"><g transform="translate(143.398906, 167.723837)"><g><path d="M 0.296875 0 L 0.296875 -3.390625 L 2.546875 -3.390625 L 2.546875 -2.8125 L 1.015625 -2.8125 L 1.015625 -2 L 2.390625 -2 L 2.390625 -1.40625 L 1.015625 -1.40625 L 1.015625 0 Z M 0.296875 0 "/></g></g></g><g fill="#98198e" fill-opacity="1"><g transform="translate(147.462968, 167.723837)"><g><path d="M 0.875 0 L 0.109375 0 L 1.28125 -3.390625 L 2.203125 -3.390625 L 3.375 0 L 2.609375 0 L 2.359375 -0.78125 L 1.140625 -0.78125 Z M 1.3125 -1.328125 L 2.171875 -1.328125 L 1.765625 -2.625 L 1.734375 -2.625 Z M 1.3125 -1.328125 "/></g></g></g><g fill="#98198e" fill-opacity="1"><g transform="translate(152.287675, 167.723837)"><g><path d="M 2.140625 -2.421875 C 2.128906 -2.554688 2.070312 -2.660156 1.96875 -2.734375 C 1.863281 -2.804688 1.726562 -2.84375 1.5625 -2.84375 C 1.382812 -2.84375 1.25 -2.804688 1.15625 -2.734375 C 1.0625 -2.660156 1.015625 -2.570312 1.015625 -2.46875 C 1.015625 -2.34375 1.066406 -2.25 1.171875 -2.1875 C 1.273438 -2.125 1.398438 -2.078125 1.546875 -2.046875 L 1.859375 -1.96875 C 2.054688 -1.925781 2.226562 -1.863281 2.375 -1.78125 C 2.53125 -1.695312 2.648438 -1.585938 2.734375 -1.453125 C 2.828125 -1.316406 2.875 -1.15625 2.875 -0.96875 C 2.875 -0.65625 2.753906 -0.40625 2.515625 -0.21875 C 2.285156 -0.0390625 1.960938 0.046875 1.546875 0.046875 C 1.140625 0.046875 0.8125 -0.046875 0.5625 -0.234375 C 0.320312 -0.421875 0.195312 -0.695312 0.1875 -1.0625 L 0.875 -1.0625 C 0.894531 -0.894531 0.960938 -0.765625 1.078125 -0.671875 C 1.203125 -0.585938 1.359375 -0.546875 1.546875 -0.546875 C 1.722656 -0.546875 1.863281 -0.582031 1.96875 -0.65625 C 2.082031 -0.738281 2.144531 -0.84375 2.15625 -0.96875 C 2.144531 -1.082031 2.085938 -1.171875 1.984375 -1.234375 C 1.890625 -1.296875 1.753906 -1.347656 1.578125 -1.390625 L 1.203125 -1.484375 C 0.910156 -1.554688 0.679688 -1.664062 0.515625 -1.8125 C 0.359375 -1.96875 0.28125 -2.171875 0.28125 -2.421875 C 0.28125 -2.617188 0.332031 -2.796875 0.4375 -2.953125 C 0.550781 -3.109375 0.703125 -3.226562 0.890625 -3.3125 C 1.085938 -3.394531 1.3125 -3.4375 1.5625 -3.4375 C 1.8125 -3.4375 2.03125 -3.394531 2.21875 -3.3125 C 2.40625 -3.226562 2.550781 -3.109375 2.65625 -2.953125 C 2.769531 -2.796875 2.828125 -2.617188 2.828125 -2.421875 Z M 2.140625 -2.421875 "/></g></g></g><g fill="#98198e" fill-opacity="1"><g transform="translate(156.678202, 167.723837)"><g><path d="M 0.296875 0 L 0.296875 -3.390625 L 1.015625 -3.390625 L 1.015625 -2 L 2.46875 -2 L 2.46875 -3.390625 L 3.1875 -3.390625 L 3.1875 0 L 2.46875 0 L 2.46875 -1.40625 L 1.015625 -1.40625 L 1.015625 0 Z M 0.296875 0 "/></g></g></g><g fill="#98198e" fill-opacity="1"><g transform="translate(161.494622, 167.723837)"><g><path d="M 1.015625 -3.390625 L 1.015625 0 L 0.296875 0 L 0.296875 -3.390625 Z M 1.015625 -3.390625 "/></g></g></g><g fill="#98198e" fill-opacity="1"><g transform="translate(164.138483, 167.723837)"><g><path d="M 3.421875 -1.703125 C 3.421875 -1.328125 3.347656 -1.007812 3.203125 -0.75 C 3.066406 -0.488281 2.878906 -0.289062 2.640625 -0.15625 C 2.398438 -0.0195312 2.128906 0.046875 1.828125 0.046875 C 1.523438 0.046875 1.253906 -0.0195312 1.015625 -0.15625 C 0.773438 -0.289062 0.582031 -0.488281 0.4375 -0.75 C 0.300781 -1.007812 0.234375 -1.328125 0.234375 -1.703125 C 0.234375 -2.066406 0.300781 -2.378906 0.4375 -2.640625 C 0.582031 -2.898438 0.773438 -3.097656 1.015625 -3.234375 C 1.253906 -3.367188 1.523438 -3.4375 1.828125 -3.4375 C 2.128906 -3.4375 2.398438 -3.367188 2.640625 -3.234375 C 2.878906 -3.097656 3.066406 -2.898438 3.203125 -2.640625 C 3.347656 -2.378906 3.421875 -2.066406 3.421875 -1.703125 Z M 2.6875 -1.703125 C 2.6875 -2.054688 2.609375 -2.328125 2.453125 -2.515625 C 2.296875 -2.710938 2.085938 -2.8125 1.828125 -2.8125 C 1.566406 -2.8125 1.359375 -2.710938 1.203125 -2.515625 C 1.046875 -2.328125 0.96875 -2.054688 0.96875 -1.703125 C 0.96875 -1.335938 1.046875 -1.0625 1.203125 -0.875 C 1.359375 -0.6875 1.566406 -0.59375 1.828125 -0.59375 C 2.085938 -0.59375 2.296875 -0.6875 2.453125 -0.875 C 2.609375 -1.0625 2.6875 -1.335938 2.6875 -1.703125 Z M 2.6875 -1.703125 "/></g></g></g><g fill="#98198e" fill-opacity="1"><g transform="translate(169.122277, 167.723837)"><g><path d="M 3.140625 -3.390625 L 3.140625 0 L 2.515625 0 L 1.03125 -2.140625 L 1.015625 -2.140625 L 1.015625 0 L 0.296875 0 L 0.296875 -3.390625 L 0.921875 -3.390625 L 2.390625 -1.265625 L 2.421875 -1.265625 L 2.421875 -3.390625 Z M 3.140625 -3.390625 "/></g></g></g></svg>