<?xml version="1.0" encoding="utf-8"?>
<!-- Generator: Adobe Illustrator 15.0.0, SVG Export Plug-In . SVG Version: 6.00 Build 0)  -->
<!DOCTYPE svg PUBLIC "-//W3C//DTD SVG 1.1//EN" "http://www.w3.org/Graphics/SVG/1.1/DTD/svg11.dtd">
<svg version="1.1" id="Layer_1" xmlns="http://www.w3.org/2000/svg" xmlns:xlink="http://www.w3.org/1999/xlink" x="0px" y="0px"
	 width="24px" height="24px" viewBox="0 0 24 24" enable-background="new 0 0 24 24" xml:space="preserve">
<path fill="#EE2E5A" d="M23.981,9.313c0-0.036-0.008-0.089-0.022-0.12c-0.037-0.131-0.119-0.251-0.242-0.335l-3.435-2.344V4.001
	c0-0.333-0.275-0.603-0.615-0.603h-3.953l-3.363-2.295c-0.21-0.144-0.489-0.144-0.7-0.001L8.268,3.398H4.333
	c-0.34,0-0.615,0.27-0.615,0.603v2.483L0.266,8.827c-0.17,0.115-0.262,0.299-0.265,0.487C0.001,9.318,0,9.321,0,9.325l0.018,13.078
	c0,0.16,0.065,0.313,0.181,0.426s0.271,0.176,0.434,0.176c0,0,0,0,0.001,0l22.752-0.031c0.339,0,0.614-0.271,0.614-0.604
	L23.981,9.313z M20.282,7.983l1.964,1.34l-1.964,1.34V7.983z M12,2.333l1.562,1.065H10.43L12,2.333z M4.947,4.604h14.106v6.898
	l-4.736,3.232l-1.931-1.47c-0.003-0.002-0.005-0.004-0.008-0.006c-0.216-0.159-0.521-0.165-0.745,0.006l-1.945,1.481l-4.741-3.216
	V4.604z M3.718,7.951v2.744L1.695,9.323L3.718,7.951z M1.231,10.476l7.438,5.045l-7.423,5.651L1.231,10.476z M2.432,21.796
	l9.578-7.292l9.543,7.266L2.432,21.796z M15.334,15.509l7.419-5.063l0.015,10.723L15.334,15.509z"/>
<path fill="#EE2E5A" d="M16.161,7.018H7.839c-0.339,0-0.615,0.27-0.615,0.604c0,0.333,0.275,0.603,0.615,0.603h8.322
	c0.339,0,0.615-0.27,0.615-0.603C16.775,7.288,16.5,7.018,16.161,7.018z"/>
<path fill="#EE2E5A" d="M16.161,10.155H7.839c-0.339,0-0.615,0.27-0.615,0.603c0,0.333,0.275,0.604,0.615,0.604h8.322
	c0.339,0,0.615-0.27,0.615-0.604C16.775,10.425,16.5,10.155,16.161,10.155z"/>
</svg>
