<?xml version="1.0" encoding="utf-8"?>
<!-- Generator: Adobe Illustrator 15.0.0, SVG Export Plug-In . SVG Version: 6.00 Build 0)  -->
<!DOCTYPE svg PUBLIC "-//W3C//DTD SVG 1.1//EN" "http://www.w3.org/Graphics/SVG/1.1/DTD/svg11.dtd">
<svg version="1.1" id="Layer_1" xmlns="http://www.w3.org/2000/svg" xmlns:xlink="http://www.w3.org/1999/xlink" x="0px" y="0px"
	 width="23.994px" height="24.004px" viewBox="0 0 23.994 24.004" enable-background="new 0 0 23.994 24.004" xml:space="preserve">
<path fill="#EE2E5A" d="M18.973,14.87c-0.492-0.512-1.085-0.785-1.714-0.785c-0.624,0-1.222,0.269-1.734,0.78l-1.603,1.596
	c-0.132-0.071-0.264-0.137-0.391-0.203c-0.183-0.091-0.355-0.177-0.502-0.269c-1.501-0.952-2.866-2.193-4.174-3.8
	c-0.634-0.8-1.06-1.474-1.37-2.158c0.416-0.38,0.801-0.775,1.177-1.155c0.142-0.142,0.284-0.289,0.426-0.431
	c1.065-1.064,1.065-2.442,0-3.506L7.704,3.557C7.547,3.399,7.385,3.237,7.232,3.075C6.928,2.761,6.609,2.437,6.279,2.133
	C5.787,1.646,5.199,1.388,4.58,1.388S3.363,1.646,2.856,2.133c-0.005,0.005-0.005,0.005-0.01,0.01L1.122,3.881
	C0.472,4.529,0.102,5.32,0.021,6.237C-0.101,7.716,0.335,9.094,0.67,9.996c0.822,2.214,2.049,4.266,3.88,6.464
	c2.221,2.65,4.894,4.742,7.947,6.216c1.167,0.553,2.723,1.206,4.463,1.317c0.106,0.005,0.218,0.01,0.319,0.01
	c1.172,0,2.156-0.42,2.926-1.256c0.005-0.01,0.015-0.015,0.021-0.025c0.264-0.319,0.568-0.608,0.887-0.917
	c0.218-0.208,0.441-0.426,0.66-0.654c0.502-0.521,0.766-1.13,0.766-1.753c0-0.628-0.269-1.231-0.781-1.737L18.973,14.87z
	 M20.789,20.205C20.783,20.205,20.783,20.209,20.789,20.205c-0.198,0.213-0.401,0.405-0.619,0.618
	c-0.33,0.314-0.664,0.644-0.979,1.013c-0.512,0.547-1.116,0.806-1.907,0.806c-0.076,0-0.157,0-0.233-0.005
	c-1.506-0.097-2.906-0.684-3.956-1.186c-2.871-1.388-5.391-3.359-7.486-5.856C3.88,13.512,2.724,11.587,1.958,9.52
	C1.486,8.258,1.314,7.275,1.39,6.348c0.051-0.593,0.279-1.084,0.7-1.505l1.729-1.728C4.068,2.883,4.332,2.756,4.59,2.756
	c0.319,0,0.578,0.192,0.74,0.354c0.005,0.005,0.01,0.01,0.015,0.015c0.31,0.289,0.604,0.588,0.913,0.907
	c0.157,0.163,0.319,0.325,0.482,0.492l1.384,1.383c0.538,0.537,0.538,1.033,0,1.57C7.978,7.625,7.836,7.772,7.689,7.914
	C7.263,8.35,6.857,8.755,6.416,9.15c-0.01,0.01-0.021,0.015-0.025,0.025c-0.436,0.436-0.355,0.861-0.264,1.15
	c0.005,0.015,0.01,0.03,0.015,0.046c0.36,0.871,0.867,1.692,1.638,2.67l0.005,0.005c1.4,1.723,2.875,3.065,4.503,4.094
	c0.208,0.131,0.421,0.238,0.624,0.339c0.183,0.091,0.355,0.177,0.502,0.269c0.021,0.01,0.041,0.025,0.061,0.036
	c0.172,0.086,0.334,0.126,0.502,0.126c0.421,0,0.685-0.264,0.771-0.35l1.735-1.733c0.172-0.172,0.446-0.38,0.766-0.38
	c0.314,0,0.573,0.198,0.73,0.37c0.005,0.005,0.005,0.005,0.01,0.01l2.794,2.792C21.306,19.136,21.306,19.667,20.789,20.205z"/>
<path fill="#EE2E5A" d="M12.968,5.71c1.329,0.223,2.536,0.851,3.5,1.813c0.963,0.963,1.587,2.168,1.815,3.496
	c0.056,0.334,0.345,0.567,0.674,0.567c0.041,0,0.076-0.005,0.117-0.01c0.375-0.061,0.624-0.416,0.563-0.791
	c-0.274-1.606-1.035-3.07-2.196-4.23c-1.162-1.16-2.627-1.92-4.235-2.194c-0.375-0.061-0.725,0.188-0.791,0.557
	C12.35,5.29,12.593,5.649,12.968,5.71z"/>
<path fill="#EE2E5A" d="M23.983,10.589c-0.451-2.645-1.699-5.051-3.616-6.966s-4.326-3.161-6.974-3.612
	c-0.37-0.066-0.72,0.188-0.786,0.557c-0.061,0.375,0.188,0.725,0.563,0.791c2.363,0.4,4.519,1.52,6.233,3.227
	c1.714,1.712,2.83,3.866,3.23,6.227c0.056,0.334,0.345,0.567,0.675,0.567c0.041,0,0.076-0.005,0.117-0.01
	C23.796,11.313,24.049,10.958,23.983,10.589z"/>
</svg>
