<svg xmlns="http://www.w3.org/2000/svg" xmlns:xlink="http://www.w3.org/1999/xlink" width="48" zoomAndPan="magnify" viewBox="0 0 36 36.000001" height="48" preserveAspectRatio="xMidYMid meet" version="1.0"><defs><clipPath id="id1"><path d="M 0.488281 0 L 35.511719 0 L 35.511719 35.027344 L 0.488281 35.027344 Z M 0.488281 0 " clip-rule="nonzero"/></clipPath></defs><g clip-path="url(#id1)"><path fill="#ffffff" d="M 0.488281 0 L 35.511719 0 L 35.511719 42.324219 L 0.488281 42.324219 Z M 0.488281 0 " fill-opacity="1" fill-rule="nonzero"/><path fill="#ffffff" d="M 0.488281 0 L 35.511719 0 L 35.511719 35.027344 L 0.488281 35.027344 Z M 0.488281 0 " fill-opacity="1" fill-rule="nonzero"/><path fill="#ffffff" d="M 0.488281 0 L 35.511719 0 L 35.511719 35.027344 L 0.488281 35.027344 Z M 0.488281 0 " fill-opacity="1" fill-rule="nonzero"/></g><path fill="#f22a59" d="M 18 5.835938 C 14.773438 5.835938 12.164062 8.449219 12.164062 11.675781 C 12.164062 14.894531 14.773438 17.511719 18 17.511719 C 21.226562 17.511719 23.835938 14.894531 23.835938 11.675781 C 23.835938 8.449219 21.226562 5.835938 18 5.835938 Z M 18 20.433594 C 14.109375 20.433594 6.324219 22.378906 6.324219 26.269531 L 6.324219 29.1875 L 29.675781 29.1875 L 29.675781 26.269531 C 29.675781 22.378906 21.890625 20.433594 18 20.433594 Z M 18 20.433594 " fill-opacity="1" fill-rule="nonzero"/></svg>