<svg xmlns="http://www.w3.org/2000/svg" xmlns:xlink="http://www.w3.org/1999/xlink" width="504" zoomAndPan="magnify" viewBox="0 0 378 377.999986" height="504" preserveAspectRatio="xMidYMid meet" version="1.0"><rect x="-37.8" width="453.6" fill="#ffffff" y="-37.799999" height="453.599983" fill-opacity="1"/><rect x="-37.8" width="453.6" fill="#ffffff" y="-37.799999" height="453.599983" fill-opacity="1"/><rect x="-37.8" width="453.6" fill="#ffffff" y="-37.799999" height="453.599983" fill-opacity="1"/><path fill="#f22a59" d="M 364.210938 85.730469 C 363.09375 84.621094 361.578125 84 360 84 C 359.976562 84 359.949219 84 359.917969 84 L 79.042969 87.707031 C 77.144531 87.730469 75.363281 88.660156 74.257812 90.203125 C 73.144531 91.746094 72.832031 93.726562 73.414062 95.535156 L 120.289062 241.832031 C 121.085938 244.316406 123.394531 246 126 246 L 336 246 C 352.542969 246 366 232.542969 366 216 L 366 90 C 366 88.394531 365.355469 86.855469 364.210938 85.730469 Z M 156 216 C 156 219.3125 153.316406 222 150 222 C 146.683594 222 144 219.3125 144 216 L 144 126 C 144 122.6875 146.683594 120 150 120 C 153.316406 120 156 122.6875 156 126 Z M 186 216 C 186 219.3125 183.316406 222 180 222 C 176.683594 222 174 219.3125 174 216 L 174 126 C 174 122.6875 176.683594 120 180 120 C 183.316406 120 186 122.6875 186 126 Z M 216 216 C 216 219.3125 213.316406 222 210 222 C 206.683594 222 204 219.3125 204 216 L 204 126 C 204 122.6875 206.683594 120 210 120 C 213.316406 120 216 122.6875 216 126 Z M 246 216 C 246 219.3125 243.316406 222 240 222 C 236.683594 222 234 219.3125 234 216 L 234 126 C 234 122.6875 236.683594 120 240 120 C 243.316406 120 246 122.6875 246 126 Z M 276 216 C 276 219.3125 273.316406 222 270 222 C 266.683594 222 264 219.3125 264 216 L 264 126 C 264 122.6875 266.683594 120 270 120 C 273.316406 120 276 122.6875 276 126 Z M 306 216 C 306 219.3125 303.316406 222 300 222 C 296.683594 222 294 219.3125 294 216 L 294 126 C 294 122.6875 296.683594 120 300 120 C 303.316406 120 306 122.6875 306 126 Z M 336 216 C 336 219.3125 333.316406 222 330 222 C 326.683594 222 324 219.3125 324 216 L 324 126 C 324 122.6875 326.683594 120 330 120 C 333.316406 120 336 122.6875 336 126 Z M 336 216 " fill-opacity="1" fill-rule="nonzero"/><path fill="#f22a59" d="M 132 312 C 132 312.785156 131.960938 313.570312 131.882812 314.351562 C 131.808594 315.132812 131.691406 315.910156 131.539062 316.683594 C 131.386719 317.453125 131.195312 318.214844 130.964844 318.964844 C 130.738281 319.71875 130.472656 320.457031 130.171875 321.183594 C 129.871094 321.910156 129.535156 322.621094 129.167969 323.3125 C 128.796875 324.007812 128.390625 324.679688 127.957031 325.332031 C 127.519531 325.988281 127.050781 326.617188 126.550781 327.226562 C 126.054688 327.832031 125.527344 328.414062 124.96875 328.96875 C 124.414062 329.527344 123.832031 330.054688 123.226562 330.550781 C 122.617188 331.050781 121.988281 331.519531 121.332031 331.957031 C 120.679688 332.390625 120.007812 332.796875 119.3125 333.167969 C 118.621094 333.535156 117.910156 333.871094 117.183594 334.171875 C 116.457031 334.472656 115.71875 334.738281 114.96875 334.964844 C 114.214844 335.195312 113.453125 335.386719 112.683594 335.539062 C 111.910156 335.691406 111.132812 335.808594 110.351562 335.882812 C 109.570312 335.960938 108.785156 336 108 336 C 107.214844 336 106.429688 335.960938 105.648438 335.882812 C 104.867188 335.808594 104.089844 335.691406 103.316406 335.539062 C 102.546875 335.386719 101.785156 335.195312 101.03125 334.964844 C 100.28125 334.738281 99.542969 334.472656 98.816406 334.171875 C 98.089844 333.871094 97.378906 333.535156 96.6875 333.167969 C 95.992188 332.796875 95.320312 332.390625 94.667969 331.957031 C 94.011719 331.519531 93.382812 331.050781 92.773438 330.550781 C 92.167969 330.054688 91.585938 329.527344 91.03125 328.96875 C 90.472656 328.414062 89.945312 327.832031 89.449219 327.226562 C 88.949219 326.617188 88.480469 325.988281 88.042969 325.332031 C 87.609375 324.679688 87.203125 324.007812 86.832031 323.3125 C 86.464844 322.621094 86.128906 321.910156 85.828125 321.183594 C 85.527344 320.457031 85.261719 319.71875 85.035156 318.964844 C 84.804688 318.214844 84.613281 317.453125 84.460938 316.683594 C 84.308594 315.910156 84.191406 315.132812 84.117188 314.351562 C 84.039062 313.570312 84 312.785156 84 312 C 84 311.214844 84.039062 310.429688 84.117188 309.648438 C 84.191406 308.867188 84.308594 308.089844 84.460938 307.316406 C 84.613281 306.546875 84.804688 305.785156 85.035156 305.03125 C 85.261719 304.28125 85.527344 303.542969 85.828125 302.816406 C 86.128906 302.089844 86.464844 301.378906 86.832031 300.6875 C 87.203125 299.992188 87.609375 299.320312 88.042969 298.667969 C 88.480469 298.011719 88.949219 297.382812 89.449219 296.773438 C 89.945312 296.167969 90.472656 295.585938 91.03125 295.03125 C 91.585938 294.472656 92.167969 293.945312 92.773438 293.449219 C 93.382812 292.949219 94.011719 292.480469 94.667969 292.042969 C 95.320312 291.609375 95.992188 291.203125 96.6875 290.832031 C 97.378906 290.464844 98.089844 290.128906 98.816406 289.828125 C 99.542969 289.527344 100.28125 289.261719 101.03125 289.035156 C 101.785156 288.804688 102.546875 288.613281 103.316406 288.460938 C 104.089844 288.308594 104.867188 288.191406 105.648438 288.117188 C 106.429688 288.039062 107.214844 288 108 288 C 108.785156 288 109.570312 288.039062 110.351562 288.117188 C 111.132812 288.191406 111.910156 288.308594 112.683594 288.460938 C 113.453125 288.613281 114.214844 288.804688 114.96875 289.035156 C 115.71875 289.261719 116.457031 289.527344 117.183594 289.828125 C 117.910156 290.128906 118.621094 290.464844 119.3125 290.832031 C 120.007812 291.203125 120.679688 291.609375 121.332031 292.042969 C 121.988281 292.480469 122.617188 292.949219 123.226562 293.449219 C 123.832031 293.945312 124.414062 294.472656 124.96875 295.03125 C 125.527344 295.585938 126.054688 296.167969 126.550781 296.773438 C 127.050781 297.382812 127.519531 298.011719 127.957031 298.667969 C 128.390625 299.320312 128.796875 299.992188 129.167969 300.6875 C 129.535156 301.378906 129.871094 302.089844 130.171875 302.816406 C 130.472656 303.542969 130.738281 304.28125 130.964844 305.03125 C 131.195312 305.785156 131.386719 306.546875 131.539062 307.316406 C 131.691406 308.089844 131.808594 308.867188 131.882812 309.648438 C 131.960938 310.429688 132 311.214844 132 312 Z M 132 312 " fill-opacity="1" fill-rule="nonzero"/><path fill="#f22a59" d="M 366 312 C 366 312.785156 365.960938 313.570312 365.882812 314.351562 C 365.808594 315.132812 365.691406 315.910156 365.539062 316.683594 C 365.386719 317.453125 365.195312 318.214844 364.964844 318.964844 C 364.738281 319.71875 364.472656 320.457031 364.171875 321.183594 C 363.871094 321.910156 363.535156 322.621094 363.167969 323.3125 C 362.796875 324.007812 362.390625 324.679688 361.957031 325.332031 C 361.519531 325.988281 361.050781 326.617188 360.550781 327.226562 C 360.054688 327.832031 359.527344 328.414062 358.96875 328.96875 C 358.414062 329.527344 357.832031 330.054688 357.226562 330.550781 C 356.617188 331.050781 355.988281 331.519531 355.332031 331.957031 C 354.679688 332.390625 354.007812 332.796875 353.3125 333.167969 C 352.621094 333.535156 351.910156 333.871094 351.183594 334.171875 C 350.457031 334.472656 349.71875 334.738281 348.964844 334.964844 C 348.214844 335.195312 347.453125 335.386719 346.683594 335.539062 C 345.910156 335.691406 345.132812 335.808594 344.351562 335.882812 C 343.570312 335.960938 342.785156 336 342 336 C 341.214844 336 340.429688 335.960938 339.648438 335.882812 C 338.867188 335.808594 338.089844 335.691406 337.316406 335.539062 C 336.546875 335.386719 335.785156 335.195312 335.03125 334.964844 C 334.28125 334.738281 333.542969 334.472656 332.816406 334.171875 C 332.089844 333.871094 331.378906 333.535156 330.6875 333.167969 C 329.992188 332.796875 329.320312 332.390625 328.667969 331.957031 C 328.011719 331.519531 327.382812 331.050781 326.773438 330.550781 C 326.167969 330.054688 325.585938 329.527344 325.03125 328.96875 C 324.472656 328.414062 323.945312 327.832031 323.449219 327.226562 C 322.949219 326.617188 322.480469 325.988281 322.042969 325.332031 C 321.609375 324.679688 321.203125 324.007812 320.832031 323.3125 C 320.464844 322.621094 320.128906 321.910156 319.828125 321.183594 C 319.527344 320.457031 319.261719 319.71875 319.035156 318.964844 C 318.804688 318.214844 318.613281 317.453125 318.460938 316.683594 C 318.308594 315.910156 318.191406 315.132812 318.117188 314.351562 C 318.039062 313.570312 318 312.785156 318 312 C 318 311.214844 318.039062 310.429688 318.117188 309.648438 C 318.191406 308.867188 318.308594 308.089844 318.460938 307.316406 C 318.613281 306.546875 318.804688 305.785156 319.035156 305.03125 C 319.261719 304.28125 319.527344 303.542969 319.828125 302.816406 C 320.128906 302.089844 320.464844 301.378906 320.832031 300.6875 C 321.203125 299.992188 321.609375 299.320312 322.042969 298.667969 C 322.480469 298.011719 322.949219 297.382812 323.449219 296.773438 C 323.945312 296.167969 324.472656 295.585938 325.03125 295.03125 C 325.585938 294.472656 326.167969 293.945312 326.773438 293.449219 C 327.382812 292.949219 328.011719 292.480469 328.667969 292.042969 C 329.320312 291.609375 329.992188 291.203125 330.6875 290.832031 C 331.378906 290.464844 332.089844 290.128906 332.816406 289.828125 C 333.542969 289.527344 334.28125 289.261719 335.03125 289.035156 C 335.785156 288.804688 336.546875 288.613281 337.316406 288.460938 C 338.089844 288.308594 338.867188 288.191406 339.648438 288.117188 C 340.429688 288.039062 341.214844 288 342 288 C 342.785156 288 343.570312 288.039062 344.351562 288.117188 C 345.132812 288.191406 345.910156 288.308594 346.683594 288.460938 C 347.453125 288.613281 348.214844 288.804688 348.964844 289.035156 C 349.71875 289.261719 350.457031 289.527344 351.183594 289.828125 C 351.910156 290.128906 352.621094 290.464844 353.3125 290.832031 C 354.007812 291.203125 354.679688 291.609375 355.332031 292.042969 C 355.988281 292.480469 356.617188 292.949219 357.226562 293.449219 C 357.832031 293.945312 358.414062 294.472656 358.96875 295.03125 C 359.527344 295.585938 360.054688 296.167969 360.550781 296.773438 C 361.050781 297.382812 361.519531 298.011719 361.957031 298.667969 C 362.390625 299.320312 362.796875 299.992188 363.167969 300.6875 C 363.535156 301.378906 363.871094 302.089844 364.171875 302.816406 C 364.472656 303.542969 364.738281 304.28125 364.964844 305.03125 C 365.195312 305.785156 365.386719 306.546875 365.539062 307.316406 C 365.691406 308.089844 365.808594 308.867188 365.882812 309.648438 C 365.960938 310.429688 366 311.214844 366 312 Z M 366 312 " fill-opacity="1" fill-rule="nonzero"/><path fill="#f22a59" d="M 369 81 L 81 81 C 80.761719 81 80.539062 81.050781 80.308594 81.070312 L 75.167969 63.789062 C 72.402344 54.492188 63.703125 48 54.007812 48 L 42 48 L 42 60 L 54.007812 60 C 58.429688 60 62.402344 62.964844 63.664062 67.210938 L 118.59375 251.972656 C 120.867188 259.613281 125.335938 266.160156 131.066406 271.242188 L 103.199219 308.398438 C 101.207031 311.050781 101.746094 314.8125 104.402344 316.796875 C 105.480469 317.609375 106.738281 318 107.992188 318 C 109.824219 318 111.621094 317.171875 112.796875 315.601562 L 141.082031 277.886719 C 146.554688 280.472656 152.570312 282 158.851562 282 L 336 282 L 336 312 C 336 315.3125 338.683594 318 342 318 C 345.316406 318 348 315.3125 348 312 L 348 282 L 360 282 C 363.316406 282 366 279.3125 366 276 C 366 272.6875 363.316406 270 360 270 L 158.855469 270 C 145.679688 270 133.859375 261.179688 130.101562 248.546875 L 85.636719 99 L 369 99 C 373.96875 99 378 94.972656 378 90 C 378 85.027344 373.96875 81 369 81 Z M 369 81 " fill-opacity="1" fill-rule="nonzero"/><path fill="#f22a59" d="M 42 66 L 12 66 C 5.371094 66 0 60.628906 0 54 C 0 47.371094 5.371094 42 12 42 L 42 42 C 48.628906 42 54 47.371094 54 54 C 54 60.628906 48.628906 66 42 66 Z M 42 66 " fill-opacity="1" fill-rule="nonzero"/></svg>