<svg xmlns="http://www.w3.org/2000/svg" xmlns:xlink="http://www.w3.org/1999/xlink" width="48" zoomAndPan="magnify" viewBox="0 0 36 36.000001" height="48" preserveAspectRatio="xMidYMid meet" version="1.0"><path fill="#f22a59" d="M 30.433594 26.800781 L 24.824219 26.800781 C 23.964844 26.800781 23.265625 26.105469 23.265625 25.242188 L 23.265625 19.632812 C 23.265625 18.945312 22.707031 18.386719 22.019531 18.386719 L 19.527344 18.386719 C 18.835938 18.386719 18.28125 18.945312 18.28125 19.632812 L 18.28125 25.242188 C 18.28125 26.105469 17.582031 26.800781 16.722656 26.800781 L 11.113281 26.800781 C 10.25 26.800781 9.554688 26.105469 9.554688 25.242188 L 9.554688 13.347656 C 9.554688 11.914062 10.210938 10.558594 11.335938 9.671875 L 20.195312 2.691406 C 20.535156 2.425781 21.011719 2.425781 21.351562 2.691406 L 30.210938 9.671875 C 31.335938 10.558594 31.992188 11.914062 31.992188 13.347656 L 31.992188 25.242188 C 31.992188 26.105469 31.296875 26.800781 30.433594 26.800781 Z M 30.433594 26.800781 " fill-opacity="1" fill-rule="nonzero"/></svg>